<svg xmlns="http://www.w3.org/2000/svg" viewBox="0 0 200 88" fill="currentColor">
  <path d="M162.2 55.9l2.8-9.8c3.2-11.2.1-23.1-8.4-31.2C148 7 136.2 3.9 124.8 6.7 119.6 2.5 112.9 0 105.7 0 87.2 0 71.9 14.1 70.3 32c-14.2 3.2-24.4 15.7-24.4 30.5 0 1.5.1 3 .3 4.5h115.6a.8.8 0 00.4-.1z"/>
  <path d="M181.3 38.8a22 22 0 00-1.9.1c.1-1 .2-2 .2-3.1C179.6 20.4 167.2 8 151.7 8c-6.6 0-12.7 2.3-17.4 6.1C129.2 5.8 119.3 0 108 0 88.3 0 72.3 16 72.3 35.7c0 .7 0 1.4.1 2.1C62.1 40 54.9 49.3 54.9 60.4c0 12.6 10.2 22.7 22.7 22.7h103.7c10.2 0 18.4-8.2 18.4-18.4 0-10.1-8.2-18.4-18.4-18.4l.1.5z" opacity="0.5"/>
</svg>
